<svg xmlns="http://www.w3.org/2000/svg" width="60" height="60" viewBox="0 0 60 60" fill="none"><path d="M42.6357 1.55725C37.6287 1.55725 32.9933 4.19207 30 8.67282C27.0066 4.19207 22.3713 1.55725 17.3643 1.55725C8.61663 1.55725 1.5 9.63679 1.5 19.5679C1.5 25.2822 2.98939 30.8847 5.92667 36.2198C8.26349 40.4655 11.5177 44.5497 15.5983 48.3587C22.525 54.8252 29.3446 58.216 29.6315 58.3571C29.7444 58.4125 29.8683 58.4418 29.994 58.4427C30.1197 58.4436 30.244 58.4161 30.3577 58.3623C30.4384 58.324 32.3744 57.4015 35.2352 55.583C36.1411 55.0066 35.2443 53.5963 34.3397 54.1723C32.2773 55.4834 30.6888 56.3244 30.0069 56.6709C28.5054 55.879 22.5668 52.5867 16.7039 47.1054C12.7615 43.4192 9.62312 39.4782 7.3767 35.391C4.58548 30.3125 3.16992 24.9886 3.16992 19.5679C3.16992 10.5587 9.53718 3.22881 17.3643 3.22881C22.1865 3.22881 26.6386 6.01331 29.2732 10.6773C29.5857 11.2307 30.4168 11.2262 30.7267 10.6773C33.3614 6.01339 37.8135 3.22881 42.6357 3.22881C50.4628 3.22881 56.8301 10.5586 56.8301 19.5679C56.8301 26.2523 54.7767 32.6966 50.7265 38.7211C47.7032 43.2187 43.6322 47.4156 38.6261 51.1972C37.7689 51.8446 38.7761 53.1781 39.6319 52.5313C44.7862 48.6387 48.9853 44.3059 52.1123 39.6544C56.3507 33.3484 58.5 26.5905 58.5 19.5679C58.5 9.63688 51.3834 1.55725 42.6357 1.55725Z" fill="#24231D"></path><path d="M18.003 20.944C16.0101 23.5768 14.957 26.7183 14.957 30.0297C14.957 38.3329 21.7053 45.088 30.0006 45.088C38.2959 45.088 45.0441 38.3329 45.0441 30.0297C45.0441 21.7263 38.2959 14.9715 30.0006 14.9715C27.0542 14.9715 24.2011 15.8236 21.7491 17.437C20.8515 18.0269 21.77 19.4233 22.6661 18.8338C24.8138 17.4209 27.3096 16.666 29.8896 16.6452C29.5814 17.9476 28.8977 19.8833 27.7114 20.6255C24.6325 22.5523 23.547 25.2087 24.8078 27.7331C26.125 30.3706 28.8323 29.9074 31.0074 29.5363C31.3904 29.4705 31.786 29.4029 32.1645 29.3517C32.1903 29.3485 32.2069 29.3482 32.2167 29.3482C32.2222 29.3482 32.2244 29.3482 32.2251 29.3476C32.2432 29.3622 32.4449 29.5387 32.5629 30.4685C32.6603 31.2391 32.6641 32.2025 32.6686 33.2217C32.6766 35.3502 32.685 37.3605 33.5165 38.4199C33.9534 38.9761 34.5574 39.2598 35.258 39.2598C35.6853 39.2598 36.1487 39.1546 36.6323 38.9412C38.6247 38.0612 40.6745 35.4417 40.3318 33.3843C40.05 31.6919 39.8639 30.574 40.2494 29.701C40.5893 28.931 41.4538 28.1722 43.0809 27.2361C43.2762 28.1545 43.3745 29.0908 43.3742 30.0297C43.3742 37.4111 37.3747 43.4164 30.0006 43.4164C27.2031 43.4164 24.6039 42.5517 22.4543 41.0755C22.5624 40.2997 22.6839 38.1768 21.2641 36.0153C21.1458 35.7106 21.7119 34.5179 22.0163 33.8771C22.3872 33.096 22.7708 32.2881 22.9483 31.5184C23.4072 29.5283 21.5344 28.9746 20.6344 28.7082C20.3672 28.6295 19.964 28.51 19.8593 28.4243C19.6102 28.2203 19.1419 27.3538 18.7989 26.7218C18.3964 25.9773 18.0359 25.3124 17.6592 24.8587C18.0935 23.8239 18.6562 22.8479 19.3339 21.9537C19.9818 21.0969 18.6504 20.0892 18.0029 20.9441L18.003 20.944ZM38.7218 29.025C38.1345 30.3553 38.3648 31.741 38.6845 33.6587C38.8727 34.7901 37.446 36.7546 35.9583 37.4118C35.4118 37.6531 35.0319 37.6451 34.8295 37.3866C34.3528 36.7797 34.3441 34.7192 34.3382 33.2154C34.3288 30.9309 34.3208 28.9575 33.3244 28.0893C32.9466 27.7603 32.4672 27.6238 31.9413 27.6951C31.5341 27.7502 31.1237 27.8205 30.7263 27.8881C28.1803 28.323 26.9927 28.369 26.3016 26.9857C25.9002 26.182 25.3206 24.0925 28.5964 22.0428C30.4845 20.8619 31.2882 18.0917 31.5782 16.7366C36.7011 17.342 40.9458 20.8567 42.6141 25.5803C40.3667 26.8262 39.2544 27.8188 38.7218 29.025ZM17.3307 27.5182C17.8498 28.4776 18.2979 29.3057 18.8017 29.7181C19.1673 30.0176 19.6502 30.1602 20.1612 30.3114C21.4265 30.6859 21.3935 30.829 21.3208 31.1423C21.1845 31.7347 20.8408 32.4591 20.5081 33.1591C19.8353 34.5756 19.2 35.9132 19.8635 36.9246C20.5555 37.9783 20.7806 39.0071 20.8337 39.7675C18.2454 37.325 16.627 33.8632 16.627 30.0297C16.627 28.962 16.7518 27.9145 16.993 26.9011C17.1108 27.1115 17.2263 27.3256 17.3307 27.5182ZM48.056 9.24949C50.5003 11.3361 52.0707 14.3812 52.7227 18.2992C52.7553 18.4942 52.8559 18.6713 53.0065 18.7992C53.1572 18.927 53.3483 18.9972 53.5458 18.9975C54.0492 18.9975 54.4531 18.5221 54.3703 18.0241C53.4658 12.5919 50.9828 9.52568 49.0592 7.90984C46.9416 6.13104 45.0229 5.66612 44.9426 5.64731C43.9006 5.40251 43.5203 7.02146 44.5581 7.27394C44.5741 7.27777 46.234 7.69392 48.056 9.24949Z" fill="#24231D"></path></svg>