<svg xmlns="http://www.w3.org/2000/svg" width="70" height="70" viewBox="0 0 70 70" fill="none"><path d="M48.1574 55.9126H52.6545V45.9324H50.466C50.2747 45.9324 50.0912 45.8564 49.9559 45.7211C49.8206 45.5858 49.7445 45.4023 49.7445 45.211C49.7445 45.0197 49.8206 44.8361 49.9559 44.7008C50.0912 44.5655 50.2747 44.4895 50.466 44.4895H52.6545V43.5276C52.6545 42.5709 52.2744 41.6533 51.5979 40.9768C50.9214 40.3003 50.0039 39.9203 49.0472 39.9203C48.8558 39.9203 48.6723 39.8443 48.537 39.709C48.4017 39.5737 48.3257 39.3902 48.3257 39.1989C48.3257 39.0075 48.4017 38.8239 48.537 38.6886C48.6723 38.5533 48.8558 38.4774 49.0472 38.4774C49.9524 38.4666 50.8445 38.6943 51.6339 39.1376C52.4233 39.5808 53.0822 40.224 53.5442 41.0025C54.0261 40.2421 54.6893 39.6132 55.4742 39.1725C56.2591 38.7318 57.1412 38.4929 58.0413 38.4774C58.2302 38.4885 58.4086 38.5677 58.5435 38.7004C58.6784 38.8331 58.7606 39.0102 58.7748 39.1989C58.7535 39.4062 58.6526 39.5971 58.4934 39.7317C58.3342 39.8662 58.1291 39.9338 57.9211 39.9203C56.9644 39.9203 56.0468 40.3003 55.3704 40.9768C54.6939 41.6533 54.3138 42.5709 54.3138 43.5276V44.249H56.5023C56.6936 44.249 56.8771 44.3251 57.0124 44.4604C57.1477 44.5957 57.2237 44.7792 57.2237 44.9705C57.2237 45.1618 57.1477 45.3453 57.0124 45.4806C56.8771 45.6159 56.6936 45.6919 56.5023 45.6919H54.2417V55.6721H58.7388C59.2855 52.0881 60.7987 48.7209 63.1156 45.9324C65.0941 43.5753 66.172 40.5928 66.1577 37.5154C66.169 34.1802 64.881 30.9716 62.5668 28.5699C60.2526 26.1681 57.0941 24.7619 53.7607 24.6494H53.6405C50.2717 24.6938 47.0582 26.0739 44.7066 28.4865C42.3549 30.899 41.0573 34.1466 41.0991 37.5154C41.1258 40.5855 42.199 43.5546 44.1412 45.9324C46.2682 48.885 47.6464 52.3098 48.1574 55.9126Z" fill="white"></path><path d="M57.8849 57.3555H49.011C48.6725 57.3621 48.3397 57.4443 48.037 57.596C47.6756 57.7706 47.3709 58.0439 47.1581 58.3843C46.9453 58.7248 46.8332 59.1184 46.8346 59.5198C46.8346 59.8061 46.8914 60.0895 47.0016 60.3537C47.1119 60.6179 47.2735 60.8575 47.477 61.0588C47.6805 61.2601 47.922 61.4191 48.1874 61.5264C48.4528 61.6337 48.7368 61.6874 49.023 61.6842H57.7768C58.063 61.6874 58.347 61.6337 58.6124 61.5264C58.8778 61.4191 59.1192 61.2601 59.3227 61.0588C59.5263 60.8575 59.6879 60.6179 59.7982 60.3537C59.9084 60.0895 59.9651 59.8061 59.9651 59.5198C59.9665 59.1184 59.8545 58.7248 59.6417 58.3843C59.4289 58.0439 59.1242 57.7706 58.7627 57.596C58.5703 57.3555 58.2577 57.3555 57.8849 57.3555Z" fill="white"></path><path d="M15.9202 16.4726C16.964 16.4608 17.9809 16.1404 18.843 15.5519C19.7051 14.9634 20.3739 14.133 20.7651 13.1653C21.1563 12.1976 21.2525 11.1357 21.0416 10.1134C20.8307 9.09113 20.3222 8.15406 19.58 7.42015C18.8377 6.68623 17.895 6.18828 16.8703 5.98896C15.8457 5.78964 14.785 5.89784 13.8218 6.29999C12.8585 6.70213 12.0357 7.38025 11.457 8.24895C10.8782 9.11764 10.5695 10.1381 10.5694 11.1819C10.5694 11.8818 10.7082 12.5747 10.9778 13.2206C11.2474 13.8664 11.6425 14.4524 12.1402 14.9444C12.6378 15.4365 13.2282 15.8249 13.877 16.0873C14.5259 16.3496 15.2204 16.4806 15.9202 16.4726Z" fill="white"></path><path d="M69.1999 67.576H54.8429C55.4169 67.576 55.9674 67.3479 56.3733 66.942C56.7792 66.5361 57.0072 65.9856 57.0072 65.4116C57.0072 64.8376 56.7792 64.287 56.3733 63.8811C55.9674 63.4752 55.4169 63.2472 54.8429 63.2472H51.9329C51.3589 63.2472 50.8084 63.4752 50.4025 63.8811C49.9966 64.287 49.7686 64.8376 49.7686 65.4116C49.7686 65.9856 49.9966 66.5361 50.4025 66.942C50.8084 67.3479 51.3589 67.576 51.9329 67.576H22.738V26.2124C22.7519 26.0256 22.8324 25.8501 22.9648 25.7177C23.0972 25.5853 23.2727 25.5048 23.4594 25.4909H37.2152C38.0887 25.4844 38.9347 25.1844 39.6173 24.6392C40.2998 24.0941 40.7793 23.3353 40.9788 22.4849H8.26068C7.2676 22.4848 6.31454 22.876 5.60784 23.5737C4.90114 24.2714 4.49776 25.2194 4.48511 26.2124V44.2488C4.49953 45.1216 4.80756 45.9641 5.35949 46.6404C5.91142 47.3167 6.67502 47.7873 7.52722 47.9764V29.2184C7.52722 29.0239 7.60448 28.8373 7.74203 28.6998C7.87959 28.5622 8.06615 28.485 8.26068 28.485C8.45522 28.485 8.64178 28.5622 8.77934 28.6998C8.91689 28.8373 8.99422 29.0239 8.99422 29.2184V67.576H0.721502C0.530159 67.576 0.346664 67.652 0.211365 67.7873C0.076065 67.9226 0 68.1061 0 68.2974C0 68.4887 0.076065 68.6723 0.211365 68.8076C0.346664 68.9429 0.530159 69.0189 0.721502 69.0189H69.26C69.4489 69.0078 69.6272 68.9285 69.7621 68.7959C69.897 68.6632 69.9792 68.4861 69.9934 68.2974C70.0536 67.9367 69.6929 67.576 69.1999 67.576ZM16.6537 67.576H15.0665V48.8181C15.0807 48.6294 15.1628 48.4523 15.2977 48.3196C15.4326 48.187 15.6111 48.1077 15.7999 48.0966C15.9888 48.1077 16.1673 48.187 16.3022 48.3196C16.437 48.4523 16.5192 48.6294 16.5334 48.8181V67.576H16.6537Z" fill="white"></path><path d="M45.3435 14.429C47.8953 12.8211 50.8409 11.9475 53.8567 11.904C56.8851 11.8879 59.8508 12.7663 62.3819 14.429C62.4294 14.4745 62.4864 14.5089 62.5488 14.5297C62.6112 14.5504 62.6774 14.5572 62.7426 14.5493C62.8666 14.5516 62.9887 14.5189 63.095 14.4552C63.2013 14.3914 63.2875 14.299 63.3439 14.1885C63.4028 14.1028 63.4434 14.0059 63.4633 13.9039C63.4831 13.8018 63.4816 13.6967 63.4591 13.5952C63.4365 13.4937 63.3933 13.3978 63.3321 13.3137C63.2709 13.2296 63.1931 13.1591 63.1034 13.1064C60.31 11.3073 57.0591 10.3475 53.7365 10.3408C50.4517 10.3495 47.2399 11.3101 44.4898 13.1064C44.4027 13.1614 44.3274 13.2332 44.2681 13.3175C44.2089 13.4017 44.1668 13.4969 44.1445 13.5974C44.1221 13.698 44.1199 13.802 44.1379 13.9035C44.1559 14.0049 44.1938 14.1018 44.2493 14.1885C44.3628 14.3652 44.5416 14.4898 44.7467 14.5349C44.9518 14.5799 45.1664 14.5419 45.3435 14.429Z" fill="white"></path><path d="M53.7606 16.7139C51.8059 16.7232 49.8843 17.2191 48.1693 18.1568C48.0822 18.2119 48.0069 18.2835 47.9476 18.3678C47.8884 18.4521 47.8463 18.5473 47.824 18.6479C47.8016 18.7484 47.7994 18.8524 47.8174 18.9539C47.8354 19.0553 47.8733 19.1522 47.9288 19.2389C48.0423 19.4156 48.2211 19.5402 48.4262 19.5853C48.6313 19.6303 48.8459 19.5923 49.023 19.4794C50.4982 18.6149 52.177 18.1592 53.8868 18.1592C55.5966 18.1592 57.2756 18.6149 58.7507 19.4794C58.7982 19.5249 58.8552 19.5593 58.9175 19.5801C58.9799 19.6008 59.0461 19.6075 59.1114 19.5997C59.2374 19.6042 59.362 19.5727 59.4707 19.5088C59.5793 19.4449 59.6675 19.3513 59.7247 19.2389C59.7802 19.1522 59.8181 19.0553 59.8361 18.9539C59.8541 18.8524 59.8518 18.7484 59.8295 18.6479C59.8071 18.5473 59.7651 18.4521 59.7058 18.3678C59.6466 18.2835 59.5713 18.2119 59.4842 18.1568C57.7224 17.2166 55.7575 16.7212 53.7606 16.7139Z" fill="white"></path><path d="M64.7028 7.45479C65.4379 7.4453 66.1538 7.21868 66.7604 6.80337C67.367 6.38806 67.8373 5.80257 68.1121 5.12068C68.3869 4.43878 68.4538 3.69087 68.3046 2.971C68.1554 2.25112 67.7966 1.59146 67.2735 1.07495C66.7503 0.55845 66.0861 0.208156 65.3644 0.0681833C64.6426 -0.071789 63.8957 0.00479491 63.2173 0.288281C62.539 0.571768 61.9597 1.04951 61.5522 1.66142C61.1447 2.27332 60.9272 2.99211 60.9272 3.72729C60.9367 4.72128 61.3391 5.67112 62.0465 6.36949C62.7538 7.06786 63.7087 7.45801 64.7028 7.45479Z" fill="white"></path><path d="M34.2933 59.2793H31.2512V62.2854H34.2933V59.2793Z" fill="white"></path><path d="M31.2511 56.2734H28.2089V59.2795H31.2511V56.2734Z" fill="white"></path><path d="M34.2933 53.2676H31.2512V56.2737H34.2933V53.2676Z" fill="white"></path><path d="M31.2511 50.2612H28.2089V53.2673H31.2511V50.2612Z" fill="white"></path><path d="M34.2933 47.2554H31.2512V50.2614H34.2933V47.2554Z" fill="white"></path><path d="M31.2511 44.249H28.2089V47.2551H31.2511V44.249Z" fill="white"></path><path d="M34.2933 41.2432H31.2512V44.2492H34.2933V41.2432Z" fill="white"></path><path d="M31.2511 38.2368H28.2089V41.2429H31.2511V38.2368Z" fill="white"></path><path d="M37.3355 5.17041H34.2933V8.17648H37.3355V5.17041Z" fill="white"></path><path d="M34.2933 2.16406H31.2512V5.17014H34.2933V2.16406Z" fill="white"></path></svg>